<svg xmlns="http://www.w3.org/2000/svg" viewBox="0 0 390 844" fill="none">
  <rect width="390" height="844" fill="#0f172a"/>
  <!-- Navbar -->
  <rect width="390" height="56" fill="#1e293b"/>
  <text x="20" y="36" font-family="Inter,sans-serif" font-size="20" font-weight="700" fill="#22c55e">Mapeia.AI</text>
  <rect x="300" y="16" width="72" height="28" rx="8" fill="#22c55e"/>
  <text x="316" y="35" font-family="Inter,sans-serif" font-size="12" font-weight="600" fill="#0f172a">+ Novo</text>
  <!-- Title -->
  <text x="20" y="100" font-family="Inter,sans-serif" font-size="22" font-weight="700" fill="#f1f5f9">Meus mapas</text>
  <text x="20" y="124" font-family="Inter,sans-serif" font-size="14" fill="#64748b">3 projetos</text>
  <!-- Cards -->
  <rect x="20" y="148" width="350" height="160" rx="14" fill="#1e293b"/>
  <rect x="20" y="148" width="350" height="80" rx="14" fill="#263447"/>
  <text x="40" y="212" font-family="Inter,sans-serif" font-size="14" font-weight="600" fill="#f1f5f9">Fazenda Norte</text>
  <rect x="240" y="160" width="90" height="24" rx="12" fill="#22c55e" fill-opacity="0.15"/>
  <text x="260" y="177" font-family="Inter,sans-serif" font-size="11" font-weight="600" fill="#22c55e">● Concluído</text>
  <text x="40" y="256" font-family="Inter,sans-serif" font-size="12" fill="#64748b">320 fotos · 2 abr 2025</text>
  <text x="40" y="288" font-family="Inter,sans-serif" font-size="13" font-weight="600" fill="#22c55e">Ver mapa →</text>

  <rect x="20" y="328" width="350" height="160" rx="14" fill="#1e293b"/>
  <rect x="20" y="328" width="350" height="80" rx="14" fill="#263447"/>
  <text x="40" y="392" font-family="Inter,sans-serif" font-size="14" font-weight="600" fill="#f1f5f9">Área Industrial</text>
  <rect x="228" y="340" width="112" height="24" rx="12" fill="#eab308" fill-opacity="0.15"/>
  <text x="244" y="357" font-family="Inter,sans-serif" font-size="11" font-weight="600" fill="#eab308">● Processando</text>
  <text x="40" y="436" font-family="Inter,sans-serif" font-size="12" fill="#64748b">150 fotos · 3 abr 2025</text>
  <text x="40" y="468" font-family="Inter,sans-serif" font-size="13" font-weight="600" fill="#22c55e">Ver mapa →</text>
</svg>
